<!--?xml version="1.0" encoding="utf-8"?-->
<!-- Generator: Adobe Illustrator 15.1.0, SVG Export Plug-In . SVG Version: 6.00 Build 0)  -->

<svg version="1.1" id="_x32_" xmlns="http://www.w3.org/2000/svg" xmlns:xlink="http://www.w3.org/1999/xlink" x="0px" y="0px" width="512px" height="512px" viewBox="0 0 512 512" style="width: 256px; height: 256px; opacity: 1;" xml:space="preserve">
<style type="text/css">

	.st0{fill:#4B4B4B;}

</style>
<g>
	<path class="st0" d="M180.688,334.556l-1.438,0.25c-3.922,1.047-7.469,5-7.953,9.063c-0.453,3.625,1.703,6.109,4.953,5.875
		l1.25-0.203c3.906-1.063,7.516-5.453,8-9.516C185.953,336.478,183.844,334.306,180.688,334.556z" style="fill: rgb(75, 75, 75);"></path>
	<path class="st0" d="M318.797,274.431l-1.297,0.234c-3.938,1.063-7.531,5.391-8.031,9.469c-0.438,3.547,1.625,5.734,4.781,5.516
		l1.438-0.234c3.906-1.063,7.5-5.078,8-9.156C324.125,276.681,322.016,274.212,318.797,274.431z" style="fill: rgb(75, 75, 75);"></path>
	<path class="st0" d="M254.688,315.556l-1.297-0.078l-1.297,0.219c-1.031,0.313-2.375,0.828-4,1.656
		c-2.469,1.281-4.938,2.5-7.406,3.781c-0.516,4.438-1.078,8.844-1.594,13.266c2.469-1.25,4.938-2.531,7.469-3.797
		c1.656-0.891,3.063-1.797,4.25-2.734c1.156-0.984,2.125-1.969,2.875-2.906c0.75-0.969,1.344-1.953,1.75-2.938
		c0.406-1.016,0.656-1.938,0.766-2.906c0.141-0.953,0.078-1.75-0.172-2.359C255.797,316.119,255.344,315.744,254.688,315.556z" style="fill: rgb(75, 75, 75);"></path>
	<path class="st0" d="M255.688,291.837l-1-0.047c-1.344,0.094-3.156,0.75-5.531,1.938c-1.938,1-3.859,2-5.75,3
		c-0.547,4.344-1.063,8.688-1.594,13.031c1.781-0.891,3.5-1.766,5.281-2.703c3.063-1.547,5.438-3.281,7.156-5.109
		c1.703-1.844,2.688-3.906,2.953-6.203C257.5,293.4,257,292.119,255.688,291.837z" style="fill: rgb(75, 75, 75);"></path>
	<path class="st0" d="M507.656,98.572c-3.063-3.672-7.938-5.844-13.125-5.781c-1,0-2,0.078-3,0.203h0.031
		c-6.484,0.844-29.031,3.547-49.344,3.547c-6.938,0-13.594-0.328-19.141-1.078c-8.906-1.219-17.078-2.031-24.641-2.031
		c-11.125,0.016-21.094,1.734-29.469,6.969c-8.406,5.203-14.5,13.797-18.234,25.547c-1.453,4.578-5.141,12.688-10.125,22
		c-7.453,14.031-17.859,31.109-28.297,45.641c-5.219,7.25-10.469,13.891-15.313,19.125c-4.797,5.25-9.313,9.109-12.406,10.766
		c-1.172,0.641-1.938,1.641-2.469,2.75c-8.594,4.125-17.219,8.547-25.844,12.984c-21.063,10.844-42.156,21.594-62.734,28.094
		c-1.219-0.422-2.859-1.063-4.781-1.984c-11.609-5.406-32.406-18.25-51.453-30.844c-9.547-6.313-18.719-12.594-26.219-17.891
		s-13.406-9.688-16.156-11.984c-6.313-5.281-13.531-7.984-20.594-7.984c-9.906-0.016-19,5.391-24.688,14.078
		c-6.969,6.609-16.141,14.172-24.656,20.672c-4.328,3.281-8.484,6.313-12.109,8.781c-3.578,2.453-6.672,4.375-8.625,5.406
		l0.016,0.031c-0.813,0.406-1.563,0.922-2.125,1.516c-1.063,1.188-1.531,2.391-1.813,3.438S0,252.509,0,253.4
		c0.031,3.078,0.859,6.094,2.25,9.453c2.094,4.969,5.563,10.438,10.672,14.938c5.078,4.484,12.047,7.953,20.359,7.953
		c4.844,0,9.938-1.188,15.25-3.641c0.25,5.563,2.125,10.844,5.5,15.031c3.563,4.453,9.125,7.688,15.531,7.672
		c4.391,0,8.922-1.547,13.188-4.438c0.469,1.031,0.969,2.047,1.594,2.984c2.078,3.109,5.031,5.641,8.609,7.516
		c3.109,1.641,6.313,2.469,9.344,2.453c3.672,0.016,6.891-1.172,9.469-2.609c3.578-2.016,6.281-4.469,8.609-6.281
		c-3.813,31.469-9.344,76.969-13,107.031c12.875,6.5,26.313,8.516,40.094,7.5c29.281-2.156,60.234-18.062,91.188-33.968
		c30.969-15.938,61.938-31.875,91.25-34.047c7.5-0.563,14.906-0.203,22.156,1.266c6.031,1.219,14.531,5,14.969,5.203l0.828,0.109
		l1.297-0.5c0.656-0.469,1.094-1.281,1.188-2.031c0.5-4.203,9.25-76.297,15.281-126.188c2.031,0.141,4.078,0.281,6.031,0.281
		c12.938,0,23.469-3.25,31.031-8.234c3.781-2.5,6.828-5.422,9.016-8.734c2.172-3.266,3.516-6.953,3.516-10.813
		c0-1.75-0.359-3.516-0.953-5.203c8.172-1.656,15.203-5.625,20.547-10.563c3.531-3.266,6.391-6.984,8.406-10.875
		c2.016-3.906,3.25-8,3.25-12.172c0.031-2.281-0.438-4.625-1.359-6.844c13.016-2.422,23.359-7.484,30.922-13.859
		c10.578-8.953,15.906-20.172,15.969-30.141C512,106.884,510.719,102.228,507.656,98.572z M117.063,292.119
		c-3.625,2.188-6.344,4.813-8.813,6.594c-1.234,0.906-2.344,1.578-3.328,2.016c-0.969,0.422-1.766,0.594-2.625,0.594
		c-0.953-0.016-2.078-0.203-3.766-1.078c-2.063-1.094-3.391-2.359-4.188-3.547c-0.797-1.219-1.156-2.391-1.156-3.766
		c0-1.359,0.422-3,1.438-4.828c0.672-0.969,1.359-1.906,2.031-2.969c1.672-2.672,0.984-6.219-1.594-8.063
		c-2.563-1.844-6.156-1.375-8.156,1.094c-0.156,0.188-0.266,0.406-0.406,0.594h-0.016c-0.063,0.109-0.125,0.203-0.203,0.297
		c-0.703,0.938-1.375,1.875-1.938,2.844c-2.766,3.859-5.406,6.547-7.75,8.203c-2.922,2.078-5.219,2.688-7.031,2.688
		c-2.406-0.016-4.438-1.078-6.219-3.219c-1.75-2.141-2.938-5.344-2.922-8.641c0.016-3.406,1.141-6.828,3.938-9.781
		c2.219-2.344,2.188-6.016-0.063-8.313c-2.25-2.313-5.922-2.438-8.328-0.281c-9.594,8.641-17.094,11.188-22.688,11.172
		c-3.344,0-6.172-0.875-8.781-2.344c-3.875-2.172-7.172-5.844-9.375-9.578c-1.094-1.844-1.922-3.688-2.438-5.234
		c-0.219-0.656-0.375-1.25-0.5-1.766c2.219-1.297,4.656-2.813,7.484-4.75c11.453-7.844,27.391-20.297,38.641-31.016l0.969-1.188
		c3.875-6.188,9.313-9.203,15.063-9.219c4,0,8.406,1.469,12.906,5.203c3.781,3.141,11.031,8.453,20.281,14.906
		c13.813,9.672,31.906,21.75,48.078,31.688c7.109,4.375,13.797,8.297,19.688,11.484c-3.422,0.578-6.844,1.078-10.234,1.313
		c-8.078,0.594-16.063,0.156-23.844-1.656c-5.453-1.234-12.875-4.625-13.281-4.797l-0.781-0.094l-1.313,0.484
		c-0.656,0.484-1.125,1.266-1.203,2.031c-0.156,1.297-1.109,9.141-2.516,20.781C120.219,290.478,118.516,291.244,117.063,292.119z
		 M149.5,401.806c-1.094,0.078-2.219,0.156-3.313,0.203c0.297-12.594-7.5-22-18.406-26.781c2.5-20.641,5-41.297,7.5-61.984
		c0.781,0.031,1.547,0.031,2.313-0.016c10.438-0.781,19.531-10.969,22.047-22.641c1.109-0.047,2.234-0.094,3.328-0.188
		c21.266-1.563,43.391-10.375,65.75-21.203c-17.25,18.703-30.422,43.359-33.281,67.359c-2.938,23.984,5.156,40.922,19.813,44.094
		C192.891,391.447,170.719,400.244,149.5,401.806z M258.563,333.072c-2.344,1.828-5.219,3.641-7.844,5.172
		c-0.313,2.641-0.656,5.313-1,7.984c-2.344,1.188-4.719,2.391-7.078,3.594c0.328-2.625,0.672-5.25,0.938-7.875
		c-2.156,1.094-4.297,2.219-6.438,3.313c-0.266,2.625-0.609,5.25-0.922,7.906c-2.375,1.203-4.75,2.406-7.094,3.594
		c0.328-2.641,0.656-5.266,0.938-7.891c-1.875,0.938-3.766,1.891-5.656,2.781c-2.406,1.234-4.813,2.391-7.219,3.563
		c0.266-2.438,0.594-4.813,0.844-7.25c0.172-1.391,0.203-2.156,1.672-3.156l0.578-0.375c0.234-0.172,3.063-1.703,3.719-2.031
		c1.125-0.563,1.813-1.891,1.906-2.984c1.438-11.703,2.844-23.422,4.266-35.188c0.125-0.969-0.203-1.328-0.781-1.281l-0.641,0.172
		c-0.625,0.234-3.406,1.516-3.688,1.594l-0.531,0.125l-0.5,0.109c-0.859,0.063-0.656-0.781-0.5-1.969c0.25-2.203,0.5-4.313,0.75-6.5
		c2.406-1.172,4.844-2.344,7.25-3.516c1.875-0.953,3.75-1.891,5.625-2.828c0.328-2.688,0.656-5.422,1-8.141
		c2.359-1.172,4.719-2.391,7.078-3.594c-0.328,2.719-0.656,5.453-0.984,8.125c2.188-1.063,4.281-2.172,6.438-3.281
		c0.328-2.703,0.656-5.438,1-8.109c2.359-1.234,4.719-2.484,7.125-3.703c-0.344,2.781-0.656,5.547-1.063,8.328
		c2.609-1.141,5.531-2.031,8.078-2.219c1.203-0.094,2.328-0.016,3.297,0.281c1.656,0.5,2.859,1.406,3.484,2.859
		c0.609,1.531,0.797,3.453,0.516,5.891c-0.156,1.375-0.531,2.797-1.125,4.266c-0.594,1.453-1.406,2.969-2.406,4.516
		c-1.063,1.563-4.531,6.156-7.375,8.609c1.688-0.578,3.188-0.906,4.469-1c4.875-0.359,6.844,2.609,6.188,8.078
		c-0.328,2.484-1.125,5.047-2.391,7.594c-1.281,2.609-2.969,5.156-5.078,7.625C263.25,328.806,261.5,330.822,258.563,333.072z
		 M359.688,310.916c-0.75-0.031-1.484-0.031-2.219,0.031c-10.5,0.781-19.641,10.938-22.125,22.656
		c-1.109,0.031-2.219,0.125-3.344,0.203c-21.25,1.563-43.375,10.359-65.719,21.156c17.234-18.672,30.359-43.359,33.281-67.359
		c2.906-23.953-5.172-40.922-19.844-44.109c22.375-10.781,44.5-19.594,65.75-21.172c1.125-0.063,2.219-0.125,3.344-0.172
		c-0.359,12.625,7.453,21.984,18.406,26.766C364.703,269.587,362.219,290.228,359.688,310.916z M488.297,132.619
		c-8.266,6.938-21.266,12.547-40.266,12.641c-3.25,0.016-5.891,2.594-5.984,5.828c-0.094,3.25,2.391,5.969,5.625,6.156
		c3.359,0.234,4.891,1.141,5.625,1.859c0.719,0.75,1.141,1.609,1.172,3.391c0,1.703-0.563,4.109-1.906,6.641
		c-1.969,3.828-5.531,7.906-10.125,10.875c-4.656,3-10.25,4.953-16.531,4.953c-2.375,0-4.875-0.281-7.5-0.906v0.016
		c-0.063-0.016-0.109-0.031-0.172-0.047c-3.219-0.656-6.359,1.391-7.063,4.594s1.297,6.375,4.484,7.125
		c0.063,0.016,0.125,0.031,0.172,0.047l0,0c3.313,0.672,5.234,1.828,6.172,2.75c0.922,1,1.156,1.672,1.203,2.766
		c0,1.016-0.391,2.469-1.516,4.188c-1.688,2.578-5.047,5.547-10.094,7.781c-5.063,2.25-11.75,3.813-19.938,3.813
		c-1.438,0-3.031-0.109-4.594-0.234c0.172-1.406,0.328-2.797,0.5-4.156c-12.859-6.484-26.281-8.516-40.031-7.484
		c-11.531,0.844-23.313,3.875-35.25,8.125c10.438-12.781,21.297-29.125,30.344-44.453c4.672-7.938,8.844-15.578,12.203-22.297
		c3.359-6.75,5.891-12.484,7.328-16.984c3.234-9.938,7.594-15.5,13.172-19.047c5.625-3.516,13.172-5.109,23.109-5.109
		c6.688,0,14.406,0.719,23,1.906c6.375,0.875,13.5,1.188,20.781,1.188c21.313,0,44.125-2.781,50.891-3.641l0.016-0.016l1.406-0.094
		c2.281,0.063,3.125,0.625,3.938,1.531c0.797,0.906,1.531,2.672,1.531,5.328C500.047,117.15,496.594,125.697,488.297,132.619z" style="fill: rgb(75, 75, 75);"></path>
</g>
</svg>
